<svg width="64" height="64" viewBox="0 0 64 64" fill="none" xmlns="http://www.w3.org/2000/svg">
<circle cx="32" cy="32" r="31.5" stroke="white"/>
<path d="M23.185 37.8743C26.6543 38.1107 27.3957 38.025 27.3957 38.7271C27.3957 40.1557 22.7136 40.16 22.7136 38.8357C22.7143 38.4721 22.9486 38.1643 23.185 37.8743ZM25.1814 29.5429C22.875 29.5429 22.7707 32.7193 25.1279 32.7193C27.45 32.7193 27.3929 29.5429 25.1814 29.5429ZM48 19.7143V44.8571C48 45.7665 47.6388 46.6385 46.9958 47.2815C46.3528 47.9245 45.4807 48.2857 44.5714 48.2857H19.4286C18.5193 48.2857 17.6472 47.9245 17.0042 47.2815C16.3612 46.6385 16 45.7665 16 44.8571V19.7143C16 18.805 16.3612 17.9329 17.0042 17.2899C17.6472 16.6469 18.5193 16.2857 19.4286 16.2857H44.5714C45.4807 16.2857 46.3528 16.6469 46.9958 17.2899C47.6388 17.9329 48 18.805 48 19.7143ZM31.7857 24.665C31.7857 25.7 32.3843 26.2993 33.4186 26.2993C34.4714 26.2993 35.0707 25.7 35.0707 24.665C35.0707 23.63 34.4729 23.0714 33.42 23.0714C32.3857 23.0714 31.7857 23.6314 31.7857 24.665ZM30.2271 27.9286H26.6879C24.9021 27.4607 20.8621 27.5821 20.8621 31.2679C20.8621 32.6107 21.5336 33.5536 22.4229 33.99C21.3021 35.0164 20.7714 35.5 20.7714 36.1857C20.7714 36.6764 20.9707 37.13 21.57 37.3829C20.9343 37.9829 20.57 38.4171 20.57 39.2343C20.5714 40.6679 21.8236 41.5 25.1086 41.5C28.2671 41.5 30.0993 40.3207 30.0993 38.2336C30.0993 35.6143 28.0829 35.7107 23.33 35.4207L23.9286 34.4614C25.1429 34.8 29.2279 34.9064 29.2279 31.4307C29.2279 30.5957 28.8829 30.015 28.5564 29.5971L30.2264 29.47L30.2271 27.9286ZM36.2514 35.7743L35.3229 35.6471C35.05 35.6107 35.0321 35.5757 35.0321 35.2836V27.7514H31.275L31.0757 29.2207C32.2007 29.6171 32.29 29.5679 32.29 29.9471V35.2857C32.29 35.6871 32.2679 35.6129 31.0757 35.7764V37.2093H36.2486L36.2514 35.7743ZM43.4286 36.5L42.9379 34.9021C40.0143 36 40.2343 34.0157 40.2343 33.7071V29.37H42.9379V27.555H40.3793C40.1743 27.555 40.2364 27.735 40.2364 24.7957H38.5093C38.31 26.7743 37.675 27.5729 36.0807 27.7543V29.37C37.5429 29.37 37.4964 29.3093 37.4964 29.5514V34.3064C37.4964 36.3579 38.3129 37.2286 40.4729 37.2286C41.505 37.2286 42.6479 36.8836 43.4286 36.5Z" fill="white"/>
</svg>
