<svg width="64" height="64" viewBox="0 0 64 64" fill="none" xmlns="http://www.w3.org/2000/svg">
<circle cx="32" cy="32" r="31.5" stroke="white"/>
<path fill-rule="evenodd" clip-rule="evenodd" d="M25.9533 17.4213C27.5173 17.3493 28.0159 17.3333 31.9999 17.3333C35.9839 17.3333 36.4826 17.3506 38.0453 17.4213C39.6079 17.492 40.6746 17.7413 41.6079 18.1026C42.5852 18.472 43.4719 19.0493 44.2052 19.796C44.9519 20.528 45.5279 21.4133 45.8959 22.392C46.2586 23.3253 46.5066 24.392 46.5786 25.952C46.6506 27.5186 46.6666 28.0173 46.6666 32C46.6666 35.984 46.6493 36.4826 46.5786 38.0466C46.5079 39.6066 46.2586 40.6733 45.8959 41.6066C45.5279 42.5854 44.951 43.4722 44.2052 44.2053C43.4719 44.952 42.5852 45.528 41.6079 45.896C40.6746 46.2586 39.6079 46.5066 38.0479 46.5786C36.4826 46.6506 35.9839 46.6666 31.9999 46.6666C28.0159 46.6666 27.5173 46.6493 25.9533 46.5786C24.3933 46.508 23.3266 46.2586 22.3933 45.896C21.4145 45.5279 20.5277 44.951 19.7946 44.2053C19.0484 43.4729 18.471 42.5865 18.1026 41.608C17.7413 40.6746 17.4933 39.608 17.4213 38.048C17.3493 36.4813 17.3333 35.9826 17.3333 32C17.3333 28.016 17.3506 27.5173 17.4213 25.9546C17.4919 24.392 17.7413 23.3253 18.1026 22.392C18.4715 21.4134 19.0494 20.5271 19.7959 19.7946C20.528 19.0486 21.4139 18.4712 22.3919 18.1026C23.3253 17.7413 24.3919 17.4933 25.9519 17.4213H25.9533ZM37.9266 20.0613C36.3799 19.9906 35.9159 19.976 31.9999 19.976C28.0839 19.976 27.6199 19.9906 26.0733 20.0613C24.6426 20.1266 23.8666 20.3653 23.3493 20.5666C22.6653 20.8333 22.1759 21.1493 21.6626 21.6626C21.176 22.136 20.8015 22.7124 20.5666 23.3493C20.3653 23.8666 20.1266 24.6426 20.0613 26.0733C19.9906 27.62 19.9759 28.084 19.9759 32C19.9759 35.916 19.9906 36.38 20.0613 37.9266C20.1266 39.3573 20.3653 40.1333 20.5666 40.6506C20.8013 41.2866 21.1759 41.864 21.6626 42.3373C22.1359 42.824 22.7133 43.1986 23.3493 43.4333C23.8666 43.6346 24.6426 43.8733 26.0733 43.9386C27.6199 44.0093 28.0826 44.024 31.9999 44.024C35.9173 44.024 36.3799 44.0093 37.9266 43.9386C39.3573 43.8733 40.1333 43.6346 40.6506 43.4333C41.3346 43.1666 41.8239 42.8506 42.3373 42.3373C42.8239 41.864 43.1986 41.2866 43.4333 40.6506C43.6346 40.1333 43.8733 39.3573 43.9386 37.9266C44.0093 36.38 44.0239 35.916 44.0239 32C44.0239 28.084 44.0093 27.62 43.9386 26.0733C43.8733 24.6426 43.6346 23.8666 43.4333 23.3493C43.1666 22.6653 42.8506 22.176 42.3373 21.6626C41.8638 21.1761 41.2875 20.8016 40.6506 20.5666C40.1333 20.3653 39.3573 20.1266 37.9266 20.0613ZM30.1266 36.5213C31.1728 36.9568 32.3378 37.0156 33.4225 36.6876C34.5072 36.3596 35.4444 35.6652 36.0741 34.723C36.7037 33.7807 36.9867 32.6491 36.8746 31.5215C36.7626 30.3938 36.2626 29.3399 35.4599 28.54C34.9482 28.0286 34.3295 27.6371 33.6484 27.3935C32.9672 27.15 32.2405 27.0605 31.5206 27.1315C30.8007 27.2025 30.1055 27.4322 29.485 27.8042C28.8645 28.1761 28.3342 28.681 27.9323 29.2824C27.5304 29.8839 27.2668 30.567 27.1606 31.2826C27.0544 31.9982 27.1081 32.7284 27.318 33.4207C27.5278 34.113 27.8886 34.7501 28.3742 35.2863C28.8599 35.8224 29.4584 36.2442 30.1266 36.5213ZM26.6693 26.6693C27.3693 25.9693 28.2003 25.414 29.115 25.0351C30.0296 24.6563 31.0099 24.4613 31.9999 24.4613C32.9899 24.4613 33.9702 24.6563 34.8849 25.0351C35.7995 25.414 36.6306 25.9693 37.3306 26.6693C38.0306 27.3693 38.5859 28.2004 38.9648 29.115C39.3436 30.0297 39.5386 31.01 39.5386 32C39.5386 32.99 39.3436 33.9703 38.9648 34.8849C38.5859 35.7996 38.0306 36.6306 37.3306 37.3306C35.9168 38.7444 33.9993 39.5387 31.9999 39.5387C30.0005 39.5387 28.083 38.7444 26.6693 37.3306C25.2555 35.9169 24.4612 33.9994 24.4612 32C24.4612 30.0006 25.2555 28.0831 26.6693 26.6693ZM41.2106 25.584C41.3841 25.4203 41.5229 25.2236 41.619 25.0053C41.715 24.787 41.7663 24.5517 41.7698 24.3132C41.7733 24.0748 41.7289 23.838 41.6392 23.6171C41.5496 23.3961 41.4165 23.1953 41.2479 23.0267C41.0792 22.8581 40.8785 22.725 40.6575 22.6353C40.4365 22.5457 40.1998 22.5013 39.9613 22.5048C39.7229 22.5082 39.4876 22.5595 39.2693 22.6556C39.051 22.7516 38.8542 22.8905 38.6906 23.064C38.3723 23.4014 38.1981 23.8495 38.2049 24.3132C38.2116 24.777 38.3988 25.2198 38.7268 25.5478C39.0547 25.8757 39.4976 26.063 39.9613 26.0697C40.4251 26.0765 40.8732 25.9022 41.2106 25.584Z" fill="white"/>
</svg>
