<svg width="64" height="64" viewBox="0 0 64 64" fill="none" xmlns="http://www.w3.org/2000/svg">
<circle cx="32" cy="32" r="31.5" stroke="white"/>
<path fill-rule="evenodd" clip-rule="evenodd" d="M28.5721 27.9587H33.5241V30.4254C34.2374 29.0067 36.0667 27.732 38.8147 27.732C44.0827 27.732 45.3334 30.556 45.3334 35.7374V45.3334H40.0001V36.9174C40.0001 33.9667 39.2867 32.3027 37.4707 32.3027C34.9521 32.3027 33.9054 34.096 33.9054 36.916V45.3334H28.5721V27.9587ZM19.4267 45.1067H24.7601V27.732H19.4267V45.1067ZM25.5241 22.0667C25.5243 22.5137 25.4356 22.9563 25.2633 23.3688C25.0909 23.7813 24.8383 24.1554 24.5201 24.4694C23.8753 25.1102 23.0025 25.4689 22.0934 25.4667C21.1859 25.4661 20.3152 25.1083 19.6694 24.4707C19.3524 24.1556 19.1006 23.7811 18.9285 23.3686C18.7565 22.9561 18.6675 22.5137 18.6667 22.0667C18.6667 21.164 19.0267 20.3 19.6707 19.6627C20.3159 19.0242 21.1871 18.6663 22.0947 18.6667C23.0041 18.6667 23.8761 19.0254 24.5201 19.6627C25.1627 20.3 25.5241 21.164 25.5241 22.0667Z" fill="white"/>
</svg>
