<svg width="51" height="52" viewBox="0 0 51 52" fill="none" xmlns="http://www.w3.org/2000/svg">
<path fill-rule="evenodd" clip-rule="evenodd" d="M22.8962 0.0707531C16.87 0.733925 11.406 3.02619 6.69172 8.63432C-6.05271 23.7719 0.103249 39.9331 19.2487 42.9751C30.4073 44.7483 27.2212 49.3473 23.5593 50.4286C22.0744 50.8611 22.0456 51.4233 23.4584 51.827C29.8306 53.6002 52.0036 41.6199 49.9997 21.5517C49.1635 13.1179 45.5161 7.35123 38.9276 4.02095C36.1884 2.63694 35.8713 3.30011 38.5384 4.87154C40.5856 6.06813 42.5751 7.8414 43.8582 9.60024C46.0351 12.5989 47.5344 16.7365 47.8949 20.7877C48.9329 32.595 42.2435 42.9895 32.7717 47.7326C31.7769 48.2228 28.288 49.6789 28.0862 49.6789C27.8988 49.6789 31.7769 43.7824 21.3824 42.2542C16.2356 41.4902 14.0587 40.9423 11.4925 39.7313C2.4676 35.4784 0.00233291 25.6317 5.30771 15.0786C11.9538 1.85843 21.9158 0.560924 31.7337 2.46394C34.7323 3.04061 35.0495 2.24769 32.022 1.33943C28.5764 0.272588 25.2317 -0.188749 22.8962 0.0707531Z" fill="white"/>
</svg>
