<svg width="54" height="72" viewBox="0 0 54 72" fill="none" xmlns="http://www.w3.org/2000/svg">
<path d="M45.0116 58.3968C44.5851 59.4466 44.7492 63.5806 45.2085 64.1712C45.8974 65.0242 47.1769 64.8598 47.4066 63.9084C48.1283 60.9885 45.9631 56.0018 45.0116 58.3968Z" fill="white"/>
<path d="M9.31719 17.8799C9.12035 19.3234 9.21884 23.0634 9.28445 25.2943C9.31726 25.9833 9.84214 26.5082 10.4983 26.5738C12.4011 26.7378 12.7948 23.129 11.581 17.1909C11.2857 15.7146 9.57965 16.2068 9.31719 17.8799Z" fill="white"/>
<path d="M16.9285 14.8286C19.7499 14.8286 21.3247 14.4022 21.3247 13.6148C21.3247 12.5978 18.9625 12.3353 15.4193 12.893C11.6137 13.5492 12.6307 14.8286 16.9285 14.8286Z" fill="white"/>
<path d="M9.25176 0.294996C8.46439 0.62307 8.69404 10.7933 9.48142 11.2198C11.6467 12.368 12.5981 11.0887 12.3357 7.54546C11.7123 0.163798 11.4171 -0.590803 9.25176 0.294996Z" fill="white"/>
<path d="M2.75579 12.8276C0.557693 13.09 0 13.3196 0 14.0085C0 15.0912 6.56147 15.3536 8.10342 14.3366C9.94063 13.1227 7.08636 12.3027 2.75579 12.8276Z" fill="white"/>
<path d="M45.3727 54.1317C45.9632 54.066 46.4225 53.6067 46.4225 53.0162C46.5866 49.1449 46.7178 46.586 44.3229 47.5374C43.8636 47.7342 43.7651 50.162 44.126 52.7209C44.3557 54.1973 44.3885 54.2301 45.3727 54.1317Z" fill="white"/>
<path d="M47.9644 55.5429C46.9473 55.9694 47.0458 56.7564 48.1612 56.9861C49.1454 57.2157 53.0167 56.6583 53.7713 56.199C55.1492 55.3132 49.9328 54.7227 47.9644 55.5429Z" fill="white"/>
<path d="M43.4698 55.5096C42.42 55.1159 42.1903 55.1159 40.5171 55.608C37.991 56.3626 39.0408 57.3796 41.9606 56.9859C43.9947 56.7235 44.7165 56.0017 43.4698 55.5096Z" fill="white"/>
<path d="M39.6641 40.0576C40.4843 38.6797 40.2218 36.9409 39.0736 35.8583C36.2194 33.168 33.4635 28.575 31.856 23.818C30.9374 21.1606 28.5096 10.4983 28.5096 9.15316C28.5096 7.44718 26.6396 6.59412 25.4585 7.77518C25.1961 8.03764 24.868 9.186 24.7696 10.3343C24.1462 16.1084 20.7343 29.1984 18.7986 33.1352C17.8472 35.0709 15.8788 36.9409 13.8119 37.8595C12.0403 38.6469 12.0403 38.7781 14.2384 40.6809C18.6018 44.4866 21.8169 51.9995 24.0806 63.7445C26.1147 74.2757 29.6907 70.8637 29.297 68.7312C28.4768 64.5975 33.2995 50.72 38.8111 41.4683L39.6641 40.0576ZM35.4648 38.7125C32.2825 42.7806 28.8377 49.1452 27.1973 54.0335L26.4428 56.3301L26.0163 54.1976C23.0308 39.7295 16.9614 39.0078 16.3053 38.3844C17.027 37.6298 23.5557 33.5289 26.574 24.0804C27.4926 21.2262 27.3286 21.2262 28.2144 23.9164C29.8875 29.0015 32.2168 33.1352 34.9071 35.8911L36.449 37.4658L35.4648 38.7125Z" fill="white"/>
</svg>
